<svg width="1024" height="256" viewBox="0 0 1024 256" xmlns="http://www.w3.org/2000/svg">
  <rect width="1024" height="256" fill="#002B36"/>
  <path d="M17.96 25.64V23.4H25.64V25.64H17.96ZM27.5538 25.64V23.4H35.2338V25.64H27.5538ZM37.1475 25.64V23.4H44.8275V25.64H37.1475ZM46.7413 25.64V23.4H54.4213V25.64H46.7413ZM56.335 25.64V23.4H64.015V25.64H56.335ZM65.9288 25.64V23.4H73.6088V25.64H65.9288ZM75.5225 25.64V23.4H83.2025V25.64H75.5225ZM85.1163 25.64V23.4H92.7963V25.64H85.1163ZM94.71 25.64V23.4H102.39V25.64H94.71ZM104.304 25.64V23.4H111.984V25.64H104.304ZM113.898 25.64V23.4H121.578V25.64H113.898ZM123.491 25.64V23.4H131.171V25.64H123.491ZM133.085 25.64V23.4H140.765V25.64H133.085ZM142.679 25.64V23.4H150.359V25.64H142.679ZM152.273 25.64V23.4H159.953V25.64H152.273ZM161.866 25.64V23.4H169.546V25.64H161.866ZM171.46 25.64V23.4H179.14V25.64H171.46ZM181.054 25.64V23.4H188.734V25.64H181.054ZM190.648 25.64V23.4H198.328V25.64H190.648ZM200.241 25.64V23.4H207.921V25.64H200.241ZM209.835 25.64V23.4H217.515V25.64H209.835ZM219.429 25.64V23.4H227.109V25.64H219.429ZM229.023 25.64V23.4H236.703V25.64H229.023ZM238.616 25.64V23.4H246.296V25.64H238.616ZM248.21 25.64V23.4H255.89V25.64H248.21ZM257.804 25.64V23.4H265.484V25.64H257.804ZM267.398 25.64V23.4H275.078V25.64H267.398ZM276.991 25.64V23.4H284.671V25.64H276.991ZM286.585 25.64V23.4H294.265V25.64H286.585ZM296.179 25.64V23.4H303.859V25.64H296.179ZM305.773 25.64V23.4H313.453V25.64H305.773ZM315.366 25.64V23.4H323.046V25.64H315.366ZM324.96 25.64V23.4H332.64V25.64H324.96ZM334.554 25.64V23.4H342.234V25.64H334.554ZM344.148 25.64V23.4H351.828V25.64H344.148ZM353.741 25.64V23.4H361.421V25.64H353.741ZM363.335 25.64V23.4H371.015V25.64H363.335ZM372.929 25.64V23.4H380.609V25.64H372.929ZM382.523 25.64V23.4H390.203V25.64H382.523ZM392.116 25.64V23.4H399.796V25.64H392.116ZM401.71 25.64V23.4H409.39V25.64H401.71ZM411.304 25.64V23.4H418.984V25.64H411.304ZM420.898 25.64V23.4H428.578V25.64H420.898ZM430.491 25.64V23.4H438.171V25.64H430.491ZM440.085 25.64V23.4H447.765V25.64H440.085ZM449.679 25.64V23.4H457.359V25.64H449.679ZM459.273 25.64V23.4H466.953V25.64H459.273ZM468.866 25.64V23.4H476.546V25.64H468.866ZM478.46 25.64V23.4H486.14V25.64H478.46ZM488.054 25.64V23.4H495.734V25.64H488.054ZM497.648 25.64V23.4H505.328V25.64H497.648ZM507.241 25.64V23.4H514.921V25.64H507.241ZM516.835 25.64V23.4H524.515V25.64H516.835ZM526.429 25.64V23.4H534.109V25.64H526.429ZM536.023 25.64V23.4H543.703V25.64H536.023ZM545.616 25.64V23.4H553.296V25.64H545.616ZM555.21 25.64V23.4H562.89V25.64H555.21ZM564.804 25.64V23.4H572.484V25.64H564.804ZM574.398 25.64V23.4H582.078V25.64H574.398ZM583.991 25.64V23.4H591.671V25.64H583.991ZM593.585 25.64V23.4H601.265V25.64H593.585ZM603.179 25.64V23.4H610.859V25.64H603.179ZM612.773 25.64V23.4H620.453V25.64H612.773ZM622.366 25.64V23.4H630.046V25.64H622.366ZM631.96 25.64V23.4H639.64V25.64H631.96ZM641.554 25.64V23.4H649.234V25.64H641.554ZM651.148 25.64V23.4H658.828V25.64H651.148ZM660.741 25.64V23.4H668.421V25.64H660.741ZM670.335 25.64V23.4H678.015V25.64H670.335ZM679.929 25.64V23.4H687.609V25.64H679.929ZM689.523 25.64V23.4H697.203V25.64H689.523ZM699.116 25.64V23.4H706.796V25.64H699.116ZM708.71 25.64V23.4H716.39V25.64H708.71ZM718.304 25.64V23.4H725.984V25.64H718.304ZM727.898 25.64V23.4H735.578V25.64H727.898ZM737.491 25.64V23.4H745.171V25.64H737.491ZM747.085 25.64V23.4H754.765V25.64H747.085ZM756.679 25.64V23.4H764.359V25.64H756.679ZM766.273 25.64V23.4H773.953V25.64H766.273ZM775.866 25.64V23.4H783.546V25.64H775.866ZM785.46 25.64V23.4H793.14V25.64H785.46ZM795.054 25.64V23.4H802.734V25.64H795.054ZM804.648 25.64V23.4H812.328V25.64H804.648ZM814.241 25.64V23.4H821.921V25.64H814.241ZM823.835 25.64V23.4H831.515V25.64H823.835ZM833.429 25.64V23.4H841.109V25.64H833.429ZM843.023 25.64V23.4H850.703V25.64H843.023ZM852.616 25.64V23.4H860.296V25.64H852.616ZM862.21 25.64V23.4H869.89V25.64H862.21ZM871.804 25.64V23.4H879.484V25.64H871.804ZM881.398 25.64V23.4H889.078V25.64H881.398ZM890.991 25.64V23.4H898.671V25.64H890.991ZM27.5538 46.64V44.4H35.2338V46.64H27.5538ZM37.1475 46.64V44.4H44.8275V46.64H37.1475ZM46.7413 46.64V44.4H54.4213V46.64H46.7413ZM56.335 46.64V44.4H64.015V46.64H56.335ZM65.9288 46.64V44.4H73.6088V46.64H65.9288ZM75.5225 46.64V44.4H83.2025V46.64H75.5225ZM85.1163 46.64V44.4H92.7963V46.64H85.1163ZM94.71 46.64V44.4H102.39V46.64H94.71ZM104.304 46.64V44.4H111.984V46.64H104.304ZM113.898 46.64V44.4H121.578V46.64H113.898ZM123.491 46.64V44.4H131.171V46.64H123.491ZM133.085 46.64V44.4H140.765V46.64H133.085ZM142.679 46.64V44.4H150.359V46.64H142.679ZM152.273 46.64V44.4H159.953V46.64H152.273ZM161.866 46.64V44.4H169.546V46.64H161.866ZM171.46 46.64V44.4H179.14V46.64H171.46ZM181.054 46.64V44.4H188.734V46.64H181.054ZM190.648 46.64V44.4H198.328V46.64H190.648ZM200.241 46.64V44.4H207.921V46.64H200.241ZM209.835 46.64V44.4H217.515V46.64H209.835ZM219.429 46.64V44.4H227.109V46.64H219.429ZM229.023 46.64V44.4H236.703V46.64H229.023ZM238.616 46.64V44.4H246.296V46.64H238.616ZM248.21 46.64V44.4H255.89V46.64H248.21ZM257.804 46.64V44.4H265.484V46.64H257.804ZM267.398 46.64V44.4H275.078V46.64H267.398ZM276.991 46.64V44.4H284.671V46.64H276.991ZM344.148 46.64V44.4H351.828V46.64H344.148ZM353.741 46.64V44.4H361.421V46.64H353.741ZM363.335 46.64V44.4H371.015V46.64H363.335ZM372.929 46.64V44.4H380.609V46.64H372.929ZM382.523 46.64V44.4H390.203V46.64H382.523ZM392.116 46.64V44.4H399.796V46.64H392.116ZM401.71 46.64V44.4H409.39V46.64H401.71ZM411.304 46.64V44.4H418.984V46.64H411.304ZM488.054 46.64V44.4H495.734V46.64H488.054ZM497.648 46.64V44.4H505.328V46.64H497.648ZM507.241 46.64V44.4H514.921V46.64H507.241ZM516.835 46.64V44.4H524.515V46.64H516.835ZM526.429 46.64V44.4H534.109V46.64H526.429ZM536.023 46.64V44.4H543.703V46.64H536.023ZM545.616 46.64V44.4H553.296V46.64H545.616ZM555.21 46.64V44.4H562.89V46.64H555.21ZM564.804 46.64V44.4H572.484V46.64H564.804ZM574.398 46.64V44.4H582.078V46.64H574.398ZM583.991 46.64V44.4H591.671V46.64H583.991ZM593.585 46.64V44.4H601.265V46.64H593.585ZM603.179 46.64V44.4H610.859V46.64H603.179ZM612.773 46.64V44.4H620.453V46.64H612.773ZM622.366 46.64V44.4H630.046V46.64H622.366ZM631.96 46.64V44.4H639.64V46.64H631.96ZM641.554 46.64V44.4H649.234V46.64H641.554ZM651.148 46.64V44.4H658.828V46.64H651.148ZM660.741 46.64V44.4H668.421V46.64H660.741ZM670.335 46.64V44.4H678.015V46.64H670.335ZM679.929 46.64V44.4H687.609V46.64H679.929ZM689.523 46.64V44.4H697.203V46.64H689.523ZM699.116 46.64V44.4H706.796V46.64H699.116ZM708.71 46.64V44.4H716.39V46.64H708.71ZM718.304 46.64V44.4H725.984V46.64H718.304ZM727.898 46.64V44.4H735.578V46.64H727.898ZM737.491 46.64V44.4H745.171V46.64H737.491ZM747.085 46.64V44.4H754.765V46.64H747.085ZM756.679 46.64V44.4H764.359V46.64H756.679ZM766.273 46.64V44.4H773.953V46.64H766.273ZM775.866 46.64V44.4H783.546V46.64H775.866ZM785.46 46.64V44.4H793.14V46.64H785.46ZM795.054 46.64V44.4H802.734V46.64H795.054ZM804.648 46.64V44.4H812.328V46.64H804.648ZM814.241 46.64V44.4H821.921V46.64H814.241ZM823.835 46.64V44.4H831.515V46.64H823.835ZM833.429 46.64V44.4H841.109V46.64H833.429ZM843.023 46.64V44.4H850.703V46.64H843.023ZM852.616 46.64V44.4H860.296V46.64H852.616ZM862.21 46.64V44.4H869.89V46.64H862.21ZM871.804 46.64V44.4H879.484V46.64H871.804ZM881.398 46.64V44.4H889.078V46.64H881.398ZM890.991 46.64V44.4H898.671V46.64H890.991ZM900.585 46.64V44.4H908.265V46.64H900.585ZM910.179 46.64V44.4H917.859V46.64H910.179ZM37.1475 67.64V65.4H44.8275V67.64H37.1475ZM46.7413 67.64V65.4H54.4213V67.64H46.7413ZM56.335 67.64V65.4H64.015V67.64H56.335ZM65.9288 67.64V65.4H73.6088V67.64H65.9288ZM75.5225 67.64V65.4H83.2025V67.64H75.5225ZM85.1163 67.64V65.4H92.7963V67.64H85.1163ZM94.71 67.64V65.4H102.39V67.64H94.71ZM104.304 67.64V65.4H111.984V67.64H104.304ZM113.898 67.64V65.4H121.578V67.64H113.898ZM123.491 67.64V65.4H131.171V67.64H123.491ZM133.085 67.64V65.4H140.765V67.64H133.085ZM142.679 67.64V65.4H150.359V67.64H142.679ZM152.273 67.64V65.4H159.953V67.64H152.273ZM161.866 67.64V65.4H169.546V67.64H161.866ZM171.46 67.64V65.4H179.14V67.64H171.46ZM181.054 67.64V65.4H188.734V67.64H181.054ZM190.648 67.64V65.4H198.328V67.64H190.648ZM200.241 67.64V65.4H207.921V67.64H200.241ZM209.835 67.64V65.4H217.515V67.64H209.835ZM219.429 67.64V65.4H227.109V67.64H219.429ZM229.023 67.64V65.4H236.703V67.64H229.023ZM238.616 67.64V65.4H246.296V67.64H238.616ZM248.21 67.64V65.4H255.89V67.64H248.21ZM257.804 67.64V65.4H265.484V67.64H257.804ZM267.398 67.64V65.4H275.078V67.64H267.398ZM344.148 67.64V65.4H351.828V67.64H344.148ZM353.741 67.64V65.4H361.421V67.64H353.741ZM363.335 67.64V65.4H371.015V67.64H363.335ZM372.929 67.64V65.4H380.609V67.64H372.929ZM382.523 67.64V65.4H390.203V67.64H382.523ZM392.116 67.64V65.4H399.796V67.64H392.116ZM401.71 67.64V65.4H409.39V67.64H401.71ZM411.304 67.64V65.4H418.984V67.64H411.304ZM497.648 67.64V65.4H505.328V67.64H497.648ZM507.241 67.64V65.4H514.921V67.64H507.241ZM516.835 67.64V65.4H524.515V67.64H516.835ZM526.429 67.64V65.4H534.109V67.64H526.429ZM536.023 67.64V65.4H543.703V67.64H536.023ZM545.616 67.64V65.4H553.296V67.64H545.616ZM555.21 67.64V65.4H562.89V67.64H555.21ZM564.804 67.64V65.4H572.484V67.64H564.804ZM574.398 67.64V65.4H582.078V67.64H574.398ZM583.991 67.64V65.4H591.671V67.64H583.991ZM593.585 67.64V65.4H601.265V67.64H593.585ZM603.179 67.64V65.4H610.859V67.64H603.179ZM612.773 67.64V65.4H620.453V67.64H612.773ZM622.366 67.64V65.4H630.046V67.64H622.366ZM631.96 67.64V65.4H639.64V67.64H631.96ZM641.554 67.64V65.4H649.234V67.64H641.554ZM651.148 67.64V65.4H658.828V67.64H651.148ZM660.741 67.64V65.4H668.421V67.64H660.741ZM670.335 67.64V65.4H678.015V67.64H670.335ZM679.929 67.64V65.4H687.609V67.64H679.929ZM689.523 67.64V65.4H697.203V67.64H689.523ZM699.116 67.64V65.4H706.796V67.64H699.116ZM708.71 67.64V65.4H716.39V67.64H708.71ZM718.304 67.64V65.4H725.984V67.64H718.304ZM727.898 67.64V65.4H735.578V67.64H727.898ZM737.491 67.64V65.4H745.171V67.64H737.491ZM747.085 67.64V65.4H754.765V67.64H747.085ZM756.679 67.64V65.4H764.359V67.64H756.679ZM766.273 67.64V65.4H773.953V67.64H766.273ZM775.866 67.64V65.4H783.546V67.64H775.866ZM785.46 67.64V65.4H793.14V67.64H785.46ZM795.054 67.64V65.4H802.734V67.64H795.054ZM804.648 67.64V65.4H812.328V67.64H804.648ZM814.241 67.64V65.4H821.921V67.64H814.241ZM823.835 67.64V65.4H831.515V67.64H823.835ZM833.429 67.64V65.4H841.109V67.64H833.429ZM843.023 67.64V65.4H850.703V67.64H843.023ZM852.616 67.64V65.4H860.296V67.64H852.616ZM862.21 67.64V65.4H869.89V67.64H862.21ZM871.804 67.64V65.4H879.484V67.64H871.804ZM881.398 67.64V65.4H889.078V67.64H881.398ZM890.991 67.64V65.4H898.671V67.64H890.991ZM900.585 67.64V65.4H908.265V67.64H900.585ZM910.179 67.64V65.4H917.859V67.64H910.179ZM919.773 67.64V65.4H927.453V67.64H919.773ZM46.7413 88.64V86.4H54.4213V88.64H46.7413ZM56.335 88.64V86.4H64.015V88.64H56.335ZM65.9288 88.64V86.4H73.6088V88.64H65.9288ZM75.5225 88.64V86.4H83.2025V88.64H75.5225ZM85.1163 88.64V86.4H92.7963V88.64H85.1163ZM94.71 88.64V86.4H102.39V88.64H94.71ZM104.304 88.64V86.4H111.984V88.64H104.304ZM113.898 88.64V86.4H121.578V88.64H113.898ZM123.491 88.64V86.4H131.171V88.64H123.491ZM133.085 88.64V86.4H140.765V88.64H133.085ZM142.679 88.64V86.4H150.359V88.64H142.679ZM152.273 88.64V86.4H159.953V88.64H152.273ZM161.866 88.64V86.4H169.546V88.64H161.866ZM171.46 88.64V86.4H179.14V88.64H171.46ZM181.054 88.64V86.4H188.734V88.64H181.054ZM190.648 88.64V86.4H198.328V88.64H190.648ZM200.241 88.64V86.4H207.921V88.64H200.241ZM209.835 88.64V86.4H217.515V88.64H209.835ZM219.429 88.64V86.4H227.109V88.64H219.429ZM229.023 88.64V86.4H236.703V88.64H229.023ZM238.616 88.64V86.4H246.296V88.64H238.616ZM248.21 88.64V86.4H255.89V88.64H248.21ZM257.804 88.64V86.4H265.484V88.64H257.804ZM267.398 88.64V86.4H275.078V88.64H267.398ZM315.366 88.64V86.4H323.046V88.64H315.366ZM324.96 88.64V86.4H332.64V88.64H324.96ZM334.554 88.64V86.4H342.234V88.64H334.554ZM344.148 88.64V86.4H351.828V88.64H344.148ZM353.741 88.64V86.4H361.421V88.64H353.741ZM363.335 88.64V86.4H371.015V88.64H363.335ZM372.929 88.64V86.4H380.609V88.64H372.929ZM420.898 88.64V86.4H428.578V88.64H420.898ZM430.491 88.64V86.4H438.171V88.64H430.491ZM440.085 88.64V86.4H447.765V88.64H440.085ZM449.679 88.64V86.4H457.359V88.64H449.679ZM507.241 88.64V86.4H514.921V88.64H507.241ZM516.835 88.64V86.4H524.515V88.64H516.835ZM526.429 88.64V86.4H534.109V88.64H526.429ZM536.023 88.64V86.4H543.703V88.64H536.023ZM545.616 88.64V86.4H553.296V88.64H545.616ZM555.21 88.64V86.4H562.89V88.64H555.21ZM564.804 88.64V86.4H572.484V88.64H564.804ZM574.398 88.64V86.4H582.078V88.64H574.398ZM583.991 88.64V86.4H591.671V88.64H583.991ZM593.585 88.64V86.4H601.265V88.64H593.585ZM603.179 88.64V86.4H610.859V88.64H603.179ZM612.773 88.64V86.4H620.453V88.64H612.773ZM622.366 88.64V86.4H630.046V88.64H622.366ZM631.96 88.64V86.4H639.64V88.64H631.96ZM641.554 88.64V86.4H649.234V88.64H641.554ZM651.148 88.64V86.4H658.828V88.64H651.148ZM660.741 88.64V86.4H668.421V88.64H660.741ZM670.335 88.64V86.4H678.015V88.64H670.335ZM679.929 88.64V86.4H687.609V88.64H679.929ZM689.523 88.64V86.4H697.203V88.64H689.523ZM699.116 88.64V86.4H706.796V88.64H699.116ZM708.71 88.64V86.4H716.39V88.64H708.71ZM718.304 88.64V86.4H725.984V88.64H718.304ZM727.898 88.64V86.4H735.578V88.64H727.898ZM737.491 88.64V86.4H745.171V88.64H737.491ZM747.085 88.64V86.4H754.765V88.64H747.085ZM756.679 88.64V86.4H764.359V88.64H756.679ZM766.273 88.64V86.4H773.953V88.64H766.273ZM775.866 88.64V86.4H783.546V88.64H775.866ZM785.46 88.64V86.4H793.14V88.64H785.46ZM795.054 88.64V86.4H802.734V88.64H795.054ZM804.648 88.64V86.4H812.328V88.64H804.648ZM814.241 88.64V86.4H821.921V88.64H814.241ZM823.835 88.64V86.4H831.515V88.64H823.835ZM833.429 88.64V86.4H841.109V88.64H833.429ZM843.023 88.64V86.4H850.703V88.64H843.023ZM852.616 88.64V86.4H860.296V88.64H852.616ZM862.21 88.64V86.4H869.89V88.64H862.21ZM871.804 88.64V86.4H879.484V88.64H871.804ZM881.398 88.64V86.4H889.078V88.64H881.398ZM890.991 88.64V86.4H898.671V88.64H890.991ZM900.585 88.64V86.4H908.265V88.64H900.585ZM910.179 88.64V86.4H917.859V88.64H910.179ZM919.773 88.64V86.4H927.453V88.64H919.773ZM929.366 88.64V86.4H937.046V88.64H929.366ZM56.335 109.64V107.4H64.015V109.64H56.335ZM65.9288 109.64V107.4H73.6088V109.64H65.9288ZM75.5225 109.64V107.4H83.2025V109.64H75.5225ZM85.1163 109.64V107.4H92.7963V109.64H85.1163ZM94.71 109.64V107.4H102.39V109.64H94.71ZM104.304 109.64V107.4H111.984V109.64H104.304ZM113.898 109.64V107.4H121.578V109.64H113.898ZM123.491 109.64V107.4H131.171V109.64H123.491ZM133.085 109.64V107.4H140.765V109.64H133.085ZM142.679 109.64V107.4H150.359V109.64H142.679ZM152.273 109.64V107.4H159.953V109.64H152.273ZM161.866 109.64V107.4H169.546V109.64H161.866ZM171.46 109.64V107.4H179.14V109.64H171.46ZM181.054 109.64V107.4H188.734V109.64H181.054ZM190.648 109.64V107.4H198.328V109.64H190.648ZM200.241 109.64V107.4H207.921V109.64H200.241ZM209.835 109.64V107.4H217.515V109.64H209.835ZM219.429 109.64V107.4H227.109V109.64H219.429ZM229.023 109.64V107.4H236.703V109.64H229.023ZM238.616 109.64V107.4H246.296V109.64H238.616ZM248.21 109.64V107.4H255.89V109.64H248.21ZM353.741 109.64V107.4H361.421V109.64H353.741ZM363.335 109.64V107.4H371.015V109.64H363.335ZM372.929 109.64V107.4H380.609V109.64H372.929ZM420.898 109.64V107.4H428.578V109.64H420.898ZM430.491 109.64V107.4H438.171V109.64H430.491ZM440.085 109.64V107.4H447.765V109.64H440.085ZM449.679 109.64V107.4H457.359V109.64H449.679ZM459.273 109.64V107.4H466.953V109.64H459.273ZM516.835 109.64V107.4H524.515V109.64H516.835ZM526.429 109.64V107.4H534.109V109.64H526.429ZM536.023 109.64V107.4H543.703V109.64H536.023ZM545.616 109.64V107.4H553.296V109.64H545.616ZM555.21 109.64V107.4H562.89V109.64H555.21ZM564.804 109.64V107.4H572.484V109.64H564.804ZM574.398 109.64V107.4H582.078V109.64H574.398ZM583.991 109.64V107.4H591.671V109.64H583.991ZM679.929 109.64V107.4H687.609V109.64H679.929ZM689.523 109.64V107.4H697.203V109.64H689.523ZM699.116 109.64V107.4H706.796V109.64H699.116ZM814.241 109.64V107.4H821.921V109.64H814.241ZM823.835 109.64V107.4H831.515V109.64H823.835ZM833.429 109.64V107.4H841.109V109.64H833.429ZM843.023 109.64V107.4H850.703V109.64H843.023ZM852.616 109.64V107.4H860.296V109.64H852.616ZM862.21 109.64V107.4H869.89V109.64H862.21ZM871.804 109.64V107.4H879.484V109.64H871.804ZM881.398 109.64V107.4H889.078V109.64H881.398ZM890.991 109.64V107.4H898.671V109.64H890.991ZM900.585 109.64V107.4H908.265V109.64H900.585ZM910.179 109.64V107.4H917.859V109.64H910.179ZM919.773 109.64V107.4H927.453V109.64H919.773ZM929.366 109.64V107.4H937.046V109.64H929.366ZM938.96 109.64V107.4H946.64V109.64H938.96ZM65.9288 130.64V128.4H73.6088V130.64H65.9288ZM75.5225 130.64V128.4H83.2025V130.64H75.5225ZM85.1163 130.64V128.4H92.7963V130.64H85.1163ZM94.71 130.64V128.4H102.39V130.64H94.71ZM104.304 130.64V128.4H111.984V130.64H104.304ZM113.898 130.64V128.4H121.578V130.64H113.898ZM123.491 130.64V128.4H131.171V130.64H123.491ZM133.085 130.64V128.4H140.765V130.64H133.085ZM142.679 130.64V128.4H150.359V130.64H142.679ZM152.273 130.64V128.4H159.953V130.64H152.273ZM161.866 130.64V128.4H169.546V130.64H161.866ZM171.46 130.64V128.4H179.14V130.64H171.46ZM181.054 130.64V128.4H188.734V130.64H181.054ZM190.648 130.64V128.4H198.328V130.64H190.648ZM200.241 130.64V128.4H207.921V130.64H200.241ZM209.835 130.64V128.4H217.515V130.64H209.835ZM219.429 130.64V128.4H227.109V130.64H219.429ZM229.023 130.64V128.4H236.703V130.64H229.023ZM238.616 130.64V128.4H246.296V130.64H238.616ZM248.21 130.64V128.4H255.89V130.64H248.21ZM353.741 130.64V128.4H361.421V130.64H353.741ZM363.335 130.64V128.4H371.015V130.64H363.335ZM372.929 130.64V128.4H380.609V130.64H372.929ZM382.523 130.64V128.4H390.203V130.64H382.523ZM392.116 130.64V128.4H399.796V130.64H392.116ZM440.085 130.64V128.4H447.765V130.64H440.085ZM449.679 130.64V128.4H457.359V130.64H449.679ZM459.273 130.64V128.4H466.953V130.64H459.273ZM468.866 130.64V128.4H476.546V130.64H468.866ZM526.429 130.64V128.4H534.109V130.64H526.429ZM536.023 130.64V128.4H543.703V130.64H536.023ZM545.616 130.64V128.4H553.296V130.64H545.616ZM555.21 130.64V128.4H562.89V130.64H555.21ZM564.804 130.64V128.4H572.484V130.64H564.804ZM574.398 130.64V128.4H582.078V130.64H574.398ZM699.116 130.64V128.4H706.796V130.64H699.116ZM814.241 130.64V128.4H821.921V130.64H814.241ZM823.835 130.64V128.4H831.515V130.64H823.835ZM833.429 130.64V128.4H841.109V130.64H833.429ZM843.023 130.64V128.4H850.703V130.64H843.023ZM852.616 130.64V128.4H860.296V130.64H852.616ZM862.21 130.64V128.4H869.89V130.64H862.21ZM871.804 130.64V128.4H879.484V130.64H871.804ZM881.398 130.64V128.4H889.078V130.64H881.398ZM890.991 130.64V128.4H898.671V130.64H890.991ZM900.585 130.64V128.4H908.265V130.64H900.585ZM910.179 130.64V128.4H917.859V130.64H910.179ZM919.773 130.64V128.4H927.453V130.64H919.773ZM929.366 130.64V128.4H937.046V130.64H929.366ZM938.96 130.64V128.4H946.64V130.64H938.96ZM948.554 130.64V128.4H956.234V130.64H948.554ZM75.5225 151.64V149.4H83.2025V151.64H75.5225ZM85.1163 151.64V149.4H92.7963V151.64H85.1163ZM94.71 151.64V149.4H102.39V151.64H94.71ZM104.304 151.64V149.4H111.984V151.64H104.304ZM113.898 151.64V149.4H121.578V151.64H113.898ZM123.491 151.64V149.4H131.171V151.64H123.491ZM133.085 151.64V149.4H140.765V151.64H133.085ZM142.679 151.64V149.4H150.359V151.64H142.679ZM152.273 151.64V149.4H159.953V151.64H152.273ZM161.866 151.64V149.4H169.546V151.64H161.866ZM171.46 151.64V149.4H179.14V151.64H171.46ZM181.054 151.64V149.4H188.734V151.64H181.054ZM190.648 151.64V149.4H198.328V151.64H190.648ZM200.241 151.64V149.4H207.921V151.64H200.241ZM209.835 151.64V149.4H217.515V151.64H209.835ZM219.429 151.64V149.4H227.109V151.64H219.429ZM229.023 151.64V149.4H236.703V151.64H229.023ZM238.616 151.64V149.4H246.296V151.64H238.616ZM248.21 151.64V149.4H255.89V151.64H248.21ZM257.804 151.64V149.4H265.484V151.64H257.804ZM267.398 151.64V149.4H275.078V151.64H267.398ZM276.991 151.64V149.4H284.671V151.64H276.991ZM286.585 151.64V149.4H294.265V151.64H286.585ZM344.148 151.64V149.4H351.828V151.64H344.148ZM353.741 151.64V149.4H361.421V151.64H353.741ZM363.335 151.64V149.4H371.015V151.64H363.335ZM372.929 151.64V149.4H380.609V151.64H372.929ZM382.523 151.64V149.4H390.203V151.64H382.523ZM392.116 151.64V149.4H399.796V151.64H392.116ZM449.679 151.64V149.4H457.359V151.64H449.679ZM459.273 151.64V149.4H466.953V151.64H459.273ZM468.866 151.64V149.4H476.546V151.64H468.866ZM478.46 151.64V149.4H486.14V151.64H478.46ZM536.023 151.64V149.4H543.703V151.64H536.023ZM545.616 151.64V149.4H553.296V151.64H545.616ZM555.21 151.64V149.4H562.89V151.64H555.21ZM564.804 151.64V149.4H572.484V151.64H564.804ZM574.398 151.64V149.4H582.078V151.64H574.398ZM699.116 151.64V149.4H706.796V151.64H699.116ZM708.71 151.64V149.4H716.39V151.64H708.71ZM833.429 151.64V149.4H841.109V151.64H833.429ZM843.023 151.64V149.4H850.703V151.64H843.023ZM852.616 151.64V149.4H860.296V151.64H852.616ZM862.21 151.64V149.4H869.89V151.64H862.21ZM871.804 151.64V149.4H879.484V151.64H871.804ZM881.398 151.64V149.4H889.078V151.64H881.398ZM890.991 151.64V149.4H898.671V151.64H890.991ZM900.585 151.64V149.4H908.265V151.64H900.585ZM910.179 151.64V149.4H917.859V151.64H910.179ZM919.773 151.64V149.4H927.453V151.64H919.773ZM929.366 151.64V149.4H937.046V151.64H929.366ZM938.96 151.64V149.4H946.64V151.64H938.96ZM948.554 151.64V149.4H956.234V151.64H948.554ZM958.148 151.64V149.4H965.828V151.64H958.148ZM85.1163 172.64V170.4H92.7963V172.64H85.1163ZM94.71 172.64V170.4H102.39V172.64H94.71ZM104.304 172.64V170.4H111.984V172.64H104.304ZM113.898 172.64V170.4H121.578V172.64H113.898ZM123.491 172.64V170.4H131.171V172.64H123.491ZM133.085 172.64V170.4H140.765V172.64H133.085ZM142.679 172.64V170.4H150.359V172.64H142.679ZM152.273 172.64V170.4H159.953V172.64H152.273ZM161.866 172.64V170.4H169.546V172.64H161.866ZM171.46 172.64V170.4H179.14V172.64H171.46ZM181.054 172.64V170.4H188.734V172.64H181.054ZM190.648 172.64V170.4H198.328V172.64H190.648ZM200.241 172.64V170.4H207.921V172.64H200.241ZM209.835 172.64V170.4H217.515V172.64H209.835ZM219.429 172.64V170.4H227.109V172.64H219.429ZM229.023 172.64V170.4H236.703V172.64H229.023ZM238.616 172.64V170.4H246.296V172.64H238.616ZM248.21 172.64V170.4H255.89V172.64H248.21ZM257.804 172.64V170.4H265.484V172.64H257.804ZM267.398 172.64V170.4H275.078V172.64H267.398ZM276.991 172.64V170.4H284.671V172.64H276.991ZM286.585 172.64V170.4H294.265V172.64H286.585ZM296.179 172.64V170.4H303.859V172.64H296.179ZM353.741 172.64V170.4H361.421V172.64H353.741ZM363.335 172.64V170.4H371.015V172.64H363.335ZM372.929 172.64V170.4H380.609V172.64H372.929ZM382.523 172.64V170.4H390.203V172.64H382.523ZM392.116 172.64V170.4H399.796V172.64H392.116ZM401.71 172.64V170.4H409.39V172.64H401.71ZM459.273 172.64V170.4H466.953V172.64H459.273ZM468.866 172.64V170.4H476.546V172.64H468.866ZM478.46 172.64V170.4H486.14V172.64H478.46ZM488.054 172.64V170.4H495.734V172.64H488.054ZM545.616 172.64V170.4H553.296V172.64H545.616ZM555.21 172.64V170.4H562.89V172.64H555.21ZM564.804 172.64V170.4H572.484V172.64H564.804ZM574.398 172.64V170.4H582.078V172.64H574.398ZM699.116 172.64V170.4H706.796V172.64H699.116ZM708.71 172.64V170.4H716.39V172.64H708.71ZM718.304 172.64V170.4H725.984V172.64H718.304ZM843.023 172.64V170.4H850.703V172.64H843.023ZM852.616 172.64V170.4H860.296V172.64H852.616ZM862.21 172.64V170.4H869.89V172.64H862.21ZM871.804 172.64V170.4H879.484V172.64H871.804ZM881.398 172.64V170.4H889.078V172.64H881.398ZM890.991 172.64V170.4H898.671V172.64H890.991ZM900.585 172.64V170.4H908.265V172.64H900.585ZM910.179 172.64V170.4H917.859V172.64H910.179ZM919.773 172.64V170.4H927.453V172.64H919.773ZM929.366 172.64V170.4H937.046V172.64H929.366ZM938.96 172.64V170.4H946.64V172.64H938.96ZM948.554 172.64V170.4H956.234V172.64H948.554ZM958.148 172.64V170.4H965.828V172.64H958.148ZM967.741 172.64V170.4H975.421V172.64H967.741ZM94.71 193.64V191.4H102.39V193.64H94.71ZM104.304 193.64V191.4H111.984V193.64H104.304ZM113.898 193.64V191.4H121.578V193.64H113.898ZM123.491 193.64V191.4H131.171V193.64H123.491ZM133.085 193.64V191.4H140.765V193.64H133.085ZM142.679 193.64V191.4H150.359V193.64H142.679ZM152.273 193.64V191.4H159.953V193.64H152.273ZM161.866 193.64V191.4H169.546V193.64H161.866ZM171.46 193.64V191.4H179.14V193.64H171.46ZM181.054 193.64V191.4H188.734V193.64H181.054ZM190.648 193.64V191.4H198.328V193.64H190.648ZM200.241 193.64V191.4H207.921V193.64H200.241ZM209.835 193.64V191.4H217.515V193.64H209.835ZM219.429 193.64V191.4H227.109V193.64H219.429ZM229.023 193.64V191.4H236.703V193.64H229.023ZM276.991 193.64V191.4H284.671V193.64H276.991ZM286.585 193.64V191.4H294.265V193.64H286.585ZM296.179 193.64V191.4H303.859V193.64H296.179ZM305.773 193.64V191.4H313.453V193.64H305.773ZM363.335 193.64V191.4H371.015V193.64H363.335ZM372.929 193.64V191.4H380.609V193.64H372.929ZM382.523 193.64V191.4H390.203V193.64H382.523ZM392.116 193.64V191.4H399.796V193.64H392.116ZM401.71 193.64V191.4H409.39V193.64H401.71ZM411.304 193.64V191.4H418.984V193.64H411.304ZM468.866 193.64V191.4H476.546V193.64H468.866ZM478.46 193.64V191.4H486.14V193.64H478.46ZM583.991 193.64V191.4H591.671V193.64H583.991ZM593.585 193.64V191.4H601.265V193.64H593.585ZM727.898 193.64V191.4H735.578V193.64H727.898ZM737.491 193.64V191.4H745.171V193.64H737.491ZM852.616 193.64V191.4H860.296V193.64H852.616ZM862.21 193.64V191.4H869.89V193.64H862.21ZM871.804 193.64V191.4H879.484V193.64H871.804ZM881.398 193.64V191.4H889.078V193.64H881.398ZM890.991 193.64V191.4H898.671V193.64H890.991ZM900.585 193.64V191.4H908.265V193.64H900.585ZM910.179 193.64V191.4H917.859V193.64H910.179ZM919.773 193.64V191.4H927.453V193.64H919.773ZM929.366 193.64V191.4H937.046V193.64H929.366ZM938.96 193.64V191.4H946.64V193.64H938.96ZM948.554 193.64V191.4H956.234V193.64H948.554ZM958.148 193.64V191.4H965.828V193.64H958.148ZM967.741 193.64V191.4H975.421V193.64H967.741ZM977.335 193.64V191.4H985.015V193.64H977.335ZM104.304 214.64V212.4H111.984V214.64H104.304ZM113.898 214.64V212.4H121.578V214.64H113.898ZM123.491 214.64V212.4H131.171V214.64H123.491ZM133.085 214.64V212.4H140.765V214.64H133.085ZM142.679 214.64V212.4H150.359V214.64H142.679ZM152.273 214.64V212.4H159.953V214.64H152.273ZM161.866 214.64V212.4H169.546V214.64H161.866ZM171.46 214.64V212.4H179.14V214.64H171.46ZM181.054 214.64V212.4H188.734V214.64H181.054ZM190.648 214.64V212.4H198.328V214.64H190.648ZM200.241 214.64V212.4H207.921V214.64H200.241ZM209.835 214.64V212.4H217.515V214.64H209.835ZM219.429 214.64V212.4H227.109V214.64H219.429ZM229.023 214.64V212.4H236.703V214.64H229.023ZM276.991 214.64V212.4H284.671V214.64H276.991ZM286.585 214.64V212.4H294.265V214.64H286.585ZM296.179 214.64V212.4H303.859V214.64H296.179ZM305.773 214.64V212.4H313.453V214.64H305.773ZM315.366 214.64V212.4H323.046V214.64H315.366ZM363.335 214.64V212.4H371.015V214.64H363.335ZM372.929 214.64V212.4H380.609V214.64H372.929ZM382.523 214.64V212.4H390.203V214.64H382.523ZM392.116 214.64V212.4H399.796V214.64H392.116ZM401.71 214.64V212.4H409.39V214.64H401.71ZM411.304 214.64V212.4H418.984V214.64H411.304ZM420.898 214.64V212.4H428.578V214.64H420.898ZM468.866 214.64V212.4H476.546V214.64H468.866ZM478.46 214.64V212.4H486.14V214.64H478.46ZM583.991 214.64V212.4H591.671V214.64H583.991ZM593.585 214.64V212.4H601.265V214.64H593.585ZM603.179 214.64V212.4H610.859V214.64H603.179ZM612.773 214.64V212.4H620.453V214.64H612.773ZM727.898 214.64V212.4H735.578V214.64H727.898ZM737.491 214.64V212.4H745.171V214.64H737.491ZM852.616 214.64V212.4H860.296V214.64H852.616ZM862.21 214.64V212.4H869.89V214.64H862.21ZM871.804 214.64V212.4H879.484V214.64H871.804ZM881.398 214.64V212.4H889.078V214.64H881.398ZM890.991 214.64V212.4H898.671V214.64H890.991ZM900.585 214.64V212.4H908.265V214.64H900.585ZM910.179 214.64V212.4H917.859V214.64H910.179ZM919.773 214.64V212.4H927.453V214.64H919.773ZM929.366 214.64V212.4H937.046V214.64H929.366ZM938.96 214.64V212.4H946.64V214.64H938.96ZM948.554 214.64V212.4H956.234V214.64H948.554ZM958.148 214.64V212.4H965.828V214.64H958.148ZM967.741 214.64V212.4H975.421V214.64H967.741ZM977.335 214.64V212.4H985.015V214.64H977.335ZM986.929 214.64V212.4H994.609V214.64H986.929ZM113.898 235.64V233.4H121.578V235.64H113.898ZM123.491 235.64V233.4H131.171V235.64H123.491ZM133.085 235.64V233.4H140.765V235.64H133.085ZM142.679 235.64V233.4H150.359V235.64H142.679ZM152.273 235.64V233.4H159.953V235.64H152.273ZM161.866 235.64V233.4H169.546V235.64H161.866ZM171.46 235.64V233.4H179.14V235.64H171.46ZM181.054 235.64V233.4H188.734V235.64H181.054ZM190.648 235.64V233.4H198.328V235.64H190.648ZM200.241 235.64V233.4H207.921V235.64H200.241ZM209.835 235.64V233.4H217.515V235.64H209.835ZM219.429 235.64V233.4H227.109V235.64H219.429ZM229.023 235.64V233.4H236.703V235.64H229.023ZM238.616 235.64V233.4H246.296V235.64H238.616ZM248.21 235.64V233.4H255.89V235.64H248.21ZM257.804 235.64V233.4H265.484V235.64H257.804ZM267.398 235.64V233.4H275.078V235.64H267.398ZM276.991 235.64V233.4H284.671V235.64H276.991ZM286.585 235.64V233.4H294.265V235.64H286.585ZM296.179 235.64V233.4H303.859V235.64H296.179ZM305.773 235.64V233.4H313.453V235.64H305.773ZM315.366 235.64V233.4H323.046V235.64H315.366ZM324.96 235.64V233.4H332.64V235.64H324.96ZM334.554 235.64V233.4H342.234V235.64H334.554ZM344.148 235.64V233.4H351.828V235.64H344.148ZM353.741 235.64V233.4H361.421V235.64H353.741ZM363.335 235.64V233.4H371.015V235.64H363.335ZM372.929 235.64V233.4H380.609V235.64H372.929ZM382.523 235.64V233.4H390.203V235.64H382.523ZM392.116 235.64V233.4H399.796V235.64H392.116ZM401.71 235.64V233.4H409.39V235.64H401.71ZM411.304 235.64V233.4H418.984V235.64H411.304ZM420.898 235.64V233.4H428.578V235.64H420.898ZM430.491 235.64V233.4H438.171V235.64H430.491ZM440.085 235.64V233.4H447.765V235.64H440.085ZM449.679 235.64V233.4H457.359V235.64H449.679ZM459.273 235.64V233.4H466.953V235.64H459.273ZM468.866 235.64V233.4H476.546V235.64H468.866ZM478.46 235.64V233.4H486.14V235.64H478.46ZM488.054 235.64V233.4H495.734V235.64H488.054ZM497.648 235.64V233.4H505.328V235.64H497.648ZM507.241 235.64V233.4H514.921V235.64H507.241ZM516.835 235.64V233.4H524.515V235.64H516.835ZM526.429 235.64V233.4H534.109V235.64H526.429ZM536.023 235.64V233.4H543.703V235.64H536.023ZM545.616 235.64V233.4H553.296V235.64H545.616ZM555.21 235.64V233.4H562.89V235.64H555.21ZM564.804 235.64V233.4H572.484V235.64H564.804ZM574.398 235.64V233.4H582.078V235.64H574.398ZM583.991 235.64V233.4H591.671V235.64H583.991ZM593.585 235.64V233.4H601.265V235.64H593.585ZM603.179 235.64V233.4H610.859V235.64H603.179ZM612.773 235.64V233.4H620.453V235.64H612.773ZM622.366 235.64V233.4H630.046V235.64H622.366ZM631.96 235.64V233.4H639.64V235.64H631.96ZM641.554 235.64V233.4H649.234V235.64H641.554ZM651.148 235.64V233.4H658.828V235.64H651.148ZM660.741 235.64V233.4H668.421V235.64H660.741ZM670.335 235.64V233.4H678.015V235.64H670.335ZM679.929 235.64V233.4H687.609V235.64H679.929ZM689.523 235.64V233.4H697.203V235.64H689.523ZM699.116 235.64V233.4H706.796V235.64H699.116ZM708.71 235.64V233.4H716.39V235.64H708.71ZM718.304 235.64V233.4H725.984V235.64H718.304ZM727.898 235.64V233.4H735.578V235.64H727.898ZM737.491 235.64V233.4H745.171V235.64H737.491ZM747.085 235.64V233.4H754.765V235.64H747.085ZM756.679 235.64V233.4H764.359V235.64H756.679ZM766.273 235.64V233.4H773.953V235.64H766.273ZM775.866 235.64V233.4H783.546V235.64H775.866ZM785.46 235.64V233.4H793.14V235.64H785.46ZM795.054 235.64V233.4H802.734V235.64H795.054ZM804.648 235.64V233.4H812.328V235.64H804.648ZM814.241 235.64V233.4H821.921V235.64H814.241ZM823.835 235.64V233.4H831.515V235.64H823.835ZM833.429 235.64V233.4H841.109V235.64H833.429ZM843.023 235.64V233.4H850.703V235.64H843.023ZM852.616 235.64V233.4H860.296V235.64H852.616ZM862.21 235.64V233.4H869.89V235.64H862.21ZM871.804 235.64V233.4H879.484V235.64H871.804ZM881.398 235.64V233.4H889.078V235.64H881.398ZM890.991 235.64V233.4H898.671V235.64H890.991ZM900.585 235.64V233.4H908.265V235.64H900.585ZM910.179 235.64V233.4H917.859V235.64H910.179ZM919.773 235.64V233.4H927.453V235.64H919.773ZM929.366 235.64V233.4H937.046V235.64H929.366ZM938.96 235.64V233.4H946.64V235.64H938.96ZM948.554 235.64V233.4H956.234V235.64H948.554ZM958.148 235.64V233.4H965.828V235.64H958.148ZM967.741 235.64V233.4H975.421V235.64H967.741ZM977.335 235.64V233.4H985.015V235.64H977.335ZM986.929 235.64V233.4H994.609V235.64H986.929ZM996.523 235.64V233.4H1004.2V235.64H996.523Z" fill="#073642"/>
  <path d="M286.425 45.76L291.945 30.72H294.425L288.905 45.76H286.425ZM420.738 45.76L426.258 30.72H428.738L423.218 45.76H420.738ZM276.831 66.76L282.351 51.72H284.831L279.311 66.76H276.831ZM315.206 66.76L320.726 51.72H323.206L317.686 66.76H315.206ZM324.8 66.76L330.32 51.72H332.8L327.28 66.76H324.8ZM334.394 66.76L339.914 51.72H342.394L336.874 66.76H334.394ZM426.242 66.76L420.722 51.72H423.202L428.722 66.76H426.242ZM430.331 66.76L435.851 51.72H438.331L432.811 66.76H430.331ZM439.925 66.76L445.445 51.72H447.925L442.405 66.76H439.925ZM449.519 66.76L455.039 51.72H457.519L451.999 66.76H449.519ZM459.113 66.76L464.633 51.72H467.113L461.593 66.76H459.113ZM276.831 87.76L282.351 72.72H284.831L279.311 87.76H276.831ZM382.363 87.76L387.883 72.72H390.363L384.843 87.76H382.363ZM464.617 87.76L459.097 72.72H461.577L467.097 87.76H464.617ZM468.706 87.76L474.226 72.72H476.706L471.186 87.76H468.706ZM257.644 108.76L263.164 93.72H265.644L260.124 108.76H257.644ZM387.867 108.76L382.347 93.72H384.827L390.347 108.76H387.867ZM391.956 108.76L397.476 93.72H399.956L394.436 108.76H391.956ZM401.55 108.76L407.07 93.72H409.55L404.03 108.76H401.55ZM411.144 108.76L416.664 93.72H419.144L413.624 108.76H411.144ZM474.21 108.76L468.69 93.72H471.17L476.69 108.76H474.21ZM478.3 108.76L483.82 93.72H486.3L480.78 108.76H478.3ZM593.425 108.76L598.945 93.72H601.425L595.905 108.76H593.425ZM708.55 108.76L714.07 93.72H716.55L711.03 108.76H708.55ZM263.148 129.76L257.628 114.72H260.108L265.628 129.76H263.148ZM267.238 129.76L272.758 114.72H275.238L269.718 129.76H267.238ZM276.831 129.76L282.351 114.72H284.831L279.311 129.76H276.831ZM286.425 129.76L291.945 114.72H294.425L288.905 129.76H286.425ZM296.019 129.76L301.539 114.72H304.019L298.499 129.76H296.019ZM334.394 129.76L339.914 114.72H342.394L336.874 129.76H334.394ZM343.988 129.76L349.508 114.72H351.988L346.468 129.76H343.988ZM401.55 129.76L407.07 114.72H409.55L404.03 129.76H401.55ZM483.804 129.76L478.284 114.72H480.764L486.284 129.76H483.804ZM487.894 129.76L493.414 114.72H495.894L490.374 129.76H487.894ZM583.831 129.76L589.351 114.72H591.831L586.311 129.76H583.831ZM622.206 129.76L627.726 114.72H630.206L624.686 129.76H622.206ZM631.8 129.76L637.32 114.72H639.8L634.28 129.76H631.8ZM641.394 129.76L646.914 114.72H649.394L643.874 129.76H641.394ZM650.988 129.76L656.508 114.72H658.988L653.468 129.76H650.988ZM660.581 129.76L666.101 114.72H668.581L663.061 129.76H660.581ZM714.054 129.76L708.534 114.72H711.014L716.534 129.76H714.054ZM718.144 129.76L723.664 114.72H726.144L720.624 129.76H718.144ZM756.519 129.76L762.039 114.72H764.519L758.999 129.76H756.519ZM766.113 129.76L771.633 114.72H774.113L768.593 129.76H766.113ZM775.706 129.76L781.226 114.72H783.706L778.186 129.76H775.706ZM785.3 129.76L790.82 114.72H793.3L787.78 129.76H785.3ZM794.894 129.76L800.414 114.72H802.894L797.374 129.76H794.894ZM804.488 129.76L810.008 114.72H812.488L806.968 129.76H804.488ZM301.523 150.76L296.003 135.72H298.483L304.003 150.76H301.523ZM305.613 150.76L311.133 135.72H313.613L308.093 150.76H305.613ZM407.054 150.76L401.534 135.72H404.014L409.534 150.76H407.054ZM411.144 150.76L416.664 135.72H419.144L413.624 150.76H411.144ZM493.398 150.76L487.878 135.72H490.358L495.878 150.76H493.398ZM497.488 150.76L503.008 135.72H505.488L499.968 150.76H497.488ZM583.831 150.76L589.351 135.72H591.831L586.311 150.76H583.831ZM723.648 150.76L718.128 135.72H720.608L726.128 150.76H723.648ZM727.738 150.76L733.258 135.72H735.738L730.218 150.76H727.738ZM311.117 171.76L305.597 156.72H308.077L313.597 171.76H311.117ZM315.206 171.76L320.726 156.72H323.206L317.686 171.76H315.206ZM416.648 171.76L411.128 156.72H413.608L419.128 171.76H416.648ZM420.738 171.76L426.258 156.72H428.738L423.218 171.76H420.738ZM502.992 171.76L497.472 156.72H499.952L505.472 171.76H502.992ZM507.081 171.76L512.601 156.72H515.081L509.561 171.76H507.081ZM589.335 171.76L583.815 156.72H586.295L591.815 171.76H589.335ZM593.425 171.76L598.945 156.72H601.425L595.905 171.76H593.425ZM603.019 171.76L608.539 156.72H611.019L605.499 171.76H603.019ZM631.8 171.76L637.32 156.72H639.8L634.28 171.76H631.8ZM641.394 171.76L646.914 156.72H649.394L643.874 171.76H641.394ZM650.988 171.76L656.508 156.72H658.988L653.468 171.76H650.988ZM660.581 171.76L666.101 156.72H668.581L663.061 171.76H660.581ZM670.175 171.76L675.695 156.72H678.175L672.655 171.76H670.175ZM679.769 171.76L685.289 156.72H687.769L682.249 171.76H679.769ZM689.363 171.76L694.883 156.72H697.363L691.843 171.76H689.363ZM733.242 171.76L727.722 156.72H730.202L735.722 171.76H733.242ZM737.331 171.76L742.851 156.72H745.331L739.811 171.76H737.331ZM746.925 171.76L752.445 156.72H754.925L749.405 171.76H746.925ZM756.519 171.76L762.039 156.72H764.519L758.999 171.76H756.519ZM766.113 171.76L771.633 156.72H774.113L768.593 171.76H766.113ZM775.706 171.76L781.226 156.72H783.706L778.186 171.76H775.706ZM785.3 171.76L790.82 156.72H793.3L787.78 171.76H785.3ZM794.894 171.76L800.414 156.72H802.894L797.374 171.76H794.894ZM804.488 171.76L810.008 156.72H812.488L806.968 171.76H804.488ZM238.456 192.76L243.976 177.72H246.456L240.936 192.76H238.456ZM320.71 192.76L315.19 177.72H317.67L323.19 192.76H320.71ZM324.8 192.76L330.32 177.72H332.8L327.28 192.76H324.8ZM426.242 192.76L420.722 177.72H423.202L428.722 192.76H426.242ZM430.331 192.76L435.851 177.72H438.331L432.811 192.76H430.331ZM487.894 192.76L493.414 177.72H495.894L490.374 192.76H487.894ZM608.523 192.76L603.003 177.72H605.483L611.003 192.76H608.523ZM612.613 192.76L618.133 177.72H620.613L615.093 192.76H612.613ZM622.206 192.76L627.726 177.72H630.206L624.686 192.76H622.206ZM746.925 192.76L752.445 177.72H754.925L749.405 192.76H746.925ZM243.96 213.76L238.44 198.72H240.92L246.44 213.76H243.96ZM248.05 213.76L253.57 198.72H256.05L250.53 213.76H248.05ZM257.644 213.76L263.164 198.72H265.644L260.124 213.76H257.644ZM267.238 213.76L272.758 198.72H275.238L269.718 213.76H267.238ZM330.304 213.76L324.784 198.72H327.264L332.784 213.76H330.304ZM334.394 213.76L339.914 198.72H342.394L336.874 213.76H334.394ZM343.988 213.76L349.508 198.72H351.988L346.468 213.76H343.988ZM353.581 213.76L359.101 198.72H361.581L356.061 213.76H353.581ZM435.835 213.76L430.315 198.72H432.795L438.315 213.76H435.835ZM439.925 213.76L445.445 198.72H447.925L442.405 213.76H439.925ZM449.519 213.76L455.039 198.72H457.519L451.999 213.76H449.519ZM459.113 213.76L464.633 198.72H467.113L461.593 213.76H459.113ZM493.398 213.76L487.878 198.72H490.358L495.878 213.76H493.398ZM497.488 213.76L503.008 198.72H505.488L499.968 213.76H497.488ZM507.081 213.76L512.601 198.72H515.081L509.561 213.76H507.081ZM516.675 213.76L522.195 198.72H524.675L519.155 213.76H516.675ZM526.269 213.76L531.789 198.72H534.269L528.749 213.76H526.269ZM535.863 213.76L541.383 198.72H543.863L538.343 213.76H535.863ZM545.456 213.76L550.976 198.72H553.456L547.936 213.76H545.456ZM555.05 213.76L560.57 198.72H563.05L557.53 213.76H555.05ZM564.644 213.76L570.164 198.72H572.644L567.124 213.76H564.644ZM574.238 213.76L579.758 198.72H582.238L576.718 213.76H574.238ZM627.71 213.76L622.19 198.72H624.67L630.19 213.76H627.71ZM631.8 213.76L637.32 198.72H639.8L634.28 213.76H631.8ZM641.394 213.76L646.914 198.72H649.394L643.874 213.76H641.394ZM650.988 213.76L656.508 198.72H658.988L653.468 213.76H650.988ZM660.581 213.76L666.101 198.72H668.581L663.061 213.76H660.581ZM670.175 213.76L675.695 198.72H678.175L672.655 213.76H670.175ZM679.769 213.76L685.289 198.72H687.769L682.249 213.76H679.769ZM689.363 213.76L694.883 198.72H697.363L691.843 213.76H689.363ZM698.956 213.76L704.476 198.72H706.956L701.436 213.76H698.956ZM708.55 213.76L714.07 198.72H716.55L711.03 213.76H708.55ZM718.144 213.76L723.664 198.72H726.144L720.624 213.76H718.144ZM752.429 213.76L746.909 198.72H749.389L754.909 213.76H752.429ZM756.519 213.76L762.039 198.72H764.519L758.999 213.76H756.519ZM766.113 213.76L771.633 198.72H774.113L768.593 213.76H766.113ZM775.706 213.76L781.226 198.72H783.706L778.186 213.76H775.706ZM785.3 213.76L790.82 198.72H793.3L787.78 213.76H785.3ZM794.894 213.76L800.414 198.72H802.894L797.374 213.76H794.894ZM804.488 213.76L810.008 198.72H812.488L806.968 213.76H804.488ZM814.081 213.76L819.601 198.72H822.081L816.561 213.76H814.081ZM823.675 213.76L829.195 198.72H831.675L826.155 213.76H823.675ZM833.269 213.76L838.789 198.72H841.269L835.749 213.76H833.269ZM842.863 213.76L848.383 198.72H850.863L845.343 213.76H842.863Z" fill="#DC322F" fill-opacity="0.5"/>
  <path d="M301.523 45.76L296.003 30.72H298.483L304.003 45.76H301.523ZM311.117 45.76L305.597 30.72H308.077L313.597 45.76H311.117ZM320.71 45.76L315.19 30.72H317.67L323.19 45.76H320.71ZM330.304 45.76L324.784 30.72H327.264L332.784 45.76H330.304ZM339.898 45.76L334.378 30.72H336.858L342.378 45.76H339.898ZM435.835 45.76L430.315 30.72H432.795L438.315 45.76H435.835ZM445.429 45.76L439.909 30.72H442.389L447.909 45.76H445.429ZM455.023 45.76L449.503 30.72H451.983L457.503 45.76H455.023ZM464.617 45.76L459.097 30.72H461.577L467.097 45.76H464.617ZM474.21 45.76L468.69 30.72H471.17L476.69 45.76H474.21ZM483.804 45.76L478.284 30.72H480.764L486.284 45.76H483.804ZM291.929 66.76L286.409 51.72H288.889L294.409 66.76H291.929ZM301.523 66.76L296.003 51.72H298.483L304.003 66.76H301.523ZM311.117 66.76L305.597 51.72H308.077L313.597 66.76H311.117ZM474.21 66.76L468.69 51.72H471.17L476.69 66.76H474.21ZM483.804 66.76L478.284 51.72H480.764L486.284 66.76H483.804ZM493.398 66.76L487.878 51.72H490.358L495.878 66.76H493.398ZM291.929 87.76L286.409 72.72H288.889L294.409 87.76H291.929ZM301.523 87.76L296.003 72.72H298.483L304.003 87.76H301.523ZM311.117 87.76L305.597 72.72H308.077L313.597 87.76H311.117ZM397.46 87.76L391.94 72.72H394.42L399.94 87.76H397.46ZM407.054 87.76L401.534 72.72H404.014L409.534 87.76H407.054ZM416.648 87.76L411.128 72.72H413.608L419.128 87.76H416.648ZM483.804 87.76L478.284 72.72H480.764L486.284 87.76H483.804ZM493.398 87.76L487.878 72.72H490.358L495.878 87.76H493.398ZM502.992 87.76L497.472 72.72H499.952L505.472 87.76H502.992ZM272.742 108.76L267.222 93.72H269.702L275.222 108.76H272.742ZM282.335 108.76L276.815 93.72H279.295L284.815 108.76H282.335ZM291.929 108.76L286.409 93.72H288.889L294.409 108.76H291.929ZM301.523 108.76L296.003 93.72H298.483L304.003 108.76H301.523ZM311.117 108.76L305.597 93.72H308.077L313.597 108.76H311.117ZM320.71 108.76L315.19 93.72H317.67L323.19 108.76H320.71ZM330.304 108.76L324.784 93.72H327.264L332.784 108.76H330.304ZM339.898 108.76L334.378 93.72H336.858L342.378 108.76H339.898ZM349.492 108.76L343.972 93.72H346.452L351.972 108.76H349.492ZM493.398 108.76L487.878 93.72H490.358L495.878 108.76H493.398ZM502.992 108.76L497.472 93.72H499.952L505.472 108.76H502.992ZM512.585 108.76L507.065 93.72H509.545L515.065 108.76H512.585ZM608.523 108.76L603.003 93.72H605.483L611.003 108.76H608.523ZM618.117 108.76L612.597 93.72H615.077L620.597 108.76H618.117ZM627.71 108.76L622.19 93.72H624.67L630.19 108.76H627.71ZM637.304 108.76L631.784 93.72H634.264L639.784 108.76H637.304ZM646.898 108.76L641.378 93.72H643.858L649.378 108.76H646.898ZM656.492 108.76L650.972 93.72H653.452L658.972 108.76H656.492ZM666.085 108.76L660.565 93.72H663.045L668.565 108.76H666.085ZM675.679 108.76L670.159 93.72H672.639L678.159 108.76H675.679ZM723.648 108.76L718.128 93.72H720.608L726.128 108.76H723.648ZM733.242 108.76L727.722 93.72H730.202L735.722 108.76H733.242ZM742.835 108.76L737.315 93.72H739.795L745.315 108.76H742.835ZM752.429 108.76L746.909 93.72H749.389L754.909 108.76H752.429ZM762.023 108.76L756.503 93.72H758.983L764.503 108.76H762.023ZM771.617 108.76L766.097 93.72H768.577L774.097 108.76H771.617ZM781.21 108.76L775.69 93.72H778.17L783.69 108.76H781.21ZM790.804 108.76L785.284 93.72H787.764L793.284 108.76H790.804ZM800.398 108.76L794.878 93.72H797.358L802.878 108.76H800.398ZM809.992 108.76L804.472 93.72H806.952L812.472 108.76H809.992ZM311.117 129.76L305.597 114.72H308.077L313.597 129.76H311.117ZM320.71 129.76L315.19 114.72H317.67L323.19 129.76H320.71ZM330.304 129.76L324.784 114.72H327.264L332.784 129.76H330.304ZM416.648 129.76L411.128 114.72H413.608L419.128 129.76H416.648ZM426.242 129.76L420.722 114.72H423.202L428.722 129.76H426.242ZM435.835 129.76L430.315 114.72H432.795L438.315 129.76H435.835ZM502.992 129.76L497.472 114.72H499.952L505.472 129.76H502.992ZM512.585 129.76L507.065 114.72H509.545L515.065 129.76H512.585ZM522.179 129.76L516.659 114.72H519.139L524.659 129.76H522.179ZM598.929 129.76L593.409 114.72H595.889L601.409 129.76H598.929ZM608.523 129.76L603.003 114.72H605.483L611.003 129.76H608.523ZM618.117 129.76L612.597 114.72H615.077L620.597 129.76H618.117ZM675.679 129.76L670.159 114.72H672.639L678.159 129.76H675.679ZM685.273 129.76L679.753 114.72H682.233L687.753 129.76H685.273ZM694.867 129.76L689.347 114.72H691.827L697.347 129.76H694.867ZM733.242 129.76L727.722 114.72H730.202L735.722 129.76H733.242ZM742.835 129.76L737.315 114.72H739.795L745.315 129.76H742.835ZM752.429 129.76L746.909 114.72H749.389L754.909 129.76H752.429ZM320.71 150.76L315.19 135.72H317.67L323.19 150.76H320.71ZM330.304 150.76L324.784 135.72H327.264L332.784 150.76H330.304ZM339.898 150.76L334.378 135.72H336.858L342.378 150.76H339.898ZM426.242 150.76L420.722 135.72H423.202L428.722 150.76H426.242ZM435.835 150.76L430.315 135.72H432.795L438.315 150.76H435.835ZM445.429 150.76L439.909 135.72H442.389L447.909 150.76H445.429ZM512.585 150.76L507.065 135.72H509.545L515.065 150.76H512.585ZM522.179 150.76L516.659 135.72H519.139L524.659 150.76H522.179ZM531.773 150.76L526.253 135.72H528.733L534.253 150.76H531.773ZM598.929 150.76L593.409 135.72H595.889L601.409 150.76H598.929ZM608.523 150.76L603.003 135.72H605.483L611.003 150.76H608.523ZM618.117 150.76L612.597 135.72H615.077L620.597 150.76H618.117ZM627.71 150.76L622.19 135.72H624.67L630.19 150.76H627.71ZM637.304 150.76L631.784 135.72H634.264L639.784 150.76H637.304ZM646.898 150.76L641.378 135.72H643.858L649.378 150.76H646.898ZM656.492 150.76L650.972 135.72H653.452L658.972 150.76H656.492ZM666.085 150.76L660.565 135.72H663.045L668.565 150.76H666.085ZM675.679 150.76L670.159 135.72H672.639L678.159 150.76H675.679ZM685.273 150.76L679.753 135.72H682.233L687.753 150.76H685.273ZM694.867 150.76L689.347 135.72H691.827L697.347 150.76H694.867ZM742.835 150.76L737.315 135.72H739.795L745.315 150.76H742.835ZM752.429 150.76L746.909 135.72H749.389L754.909 150.76H752.429ZM762.023 150.76L756.503 135.72H758.983L764.503 150.76H762.023ZM771.617 150.76L766.097 135.72H768.577L774.097 150.76H771.617ZM781.21 150.76L775.69 135.72H778.17L783.69 150.76H781.21ZM790.804 150.76L785.284 135.72H787.764L793.284 150.76H790.804ZM800.398 150.76L794.878 135.72H797.358L802.878 150.76H800.398ZM809.992 150.76L804.472 135.72H806.952L812.472 150.76H809.992ZM819.585 150.76L814.065 135.72H816.545L822.065 150.76H819.585ZM829.179 150.76L823.659 135.72H826.139L831.659 150.76H829.179ZM330.304 171.76L324.784 156.72H327.264L332.784 171.76H330.304ZM339.898 171.76L334.378 156.72H336.858L342.378 171.76H339.898ZM349.492 171.76L343.972 156.72H346.452L351.972 171.76H349.492ZM435.835 171.76L430.315 156.72H432.795L438.315 171.76H435.835ZM445.429 171.76L439.909 156.72H442.389L447.909 171.76H445.429ZM455.023 171.76L449.503 156.72H451.983L457.503 171.76H455.023ZM522.179 171.76L516.659 156.72H519.139L524.659 171.76H522.179ZM531.773 171.76L526.253 156.72H528.733L534.253 171.76H531.773ZM541.367 171.76L535.847 156.72H538.327L543.847 171.76H541.367ZM618.117 171.76L612.597 156.72H615.077L620.597 171.76H618.117ZM627.71 171.76L622.19 156.72H624.67L630.19 171.76H627.71ZM819.585 171.76L814.065 156.72H816.545L822.065 171.76H819.585ZM829.179 171.76L823.659 156.72H826.139L831.659 171.76H829.179ZM838.773 171.76L833.253 156.72H835.733L841.253 171.76H838.773ZM253.554 192.76L248.034 177.72H250.514L256.034 192.76H253.554ZM263.148 192.76L257.628 177.72H260.108L265.628 192.76H263.148ZM272.742 192.76L267.222 177.72H269.702L275.222 192.76H272.742ZM339.898 192.76L334.378 177.72H336.858L342.378 192.76H339.898ZM349.492 192.76L343.972 177.72H346.452L351.972 192.76H349.492ZM359.085 192.76L353.565 177.72H356.045L361.565 192.76H359.085ZM445.429 192.76L439.909 177.72H442.389L447.909 192.76H445.429ZM455.023 192.76L449.503 177.72H451.983L457.503 192.76H455.023ZM464.617 192.76L459.097 177.72H461.577L467.097 192.76H464.617ZM502.992 192.76L497.472 177.72H499.952L505.472 192.76H502.992ZM512.585 192.76L507.065 177.72H509.545L515.065 192.76H512.585ZM522.179 192.76L516.659 177.72H519.139L524.659 192.76H522.179ZM531.773 192.76L526.253 177.72H528.733L534.253 192.76H531.773ZM541.367 192.76L535.847 177.72H538.327L543.847 192.76H541.367ZM550.96 192.76L545.44 177.72H547.92L553.44 192.76H550.96ZM560.554 192.76L555.034 177.72H557.514L563.034 192.76H560.554ZM570.148 192.76L564.628 177.72H567.108L572.628 192.76H570.148ZM579.742 192.76L574.222 177.72H576.702L582.222 192.76H579.742ZM637.304 192.76L631.784 177.72H634.264L639.784 192.76H637.304ZM646.898 192.76L641.378 177.72H643.858L649.378 192.76H646.898ZM656.492 192.76L650.972 177.72H653.452L658.972 192.76H656.492ZM666.085 192.76L660.565 177.72H663.045L668.565 192.76H666.085ZM675.679 192.76L670.159 177.72H672.639L678.159 192.76H675.679ZM685.273 192.76L679.753 177.72H682.233L687.753 192.76H685.273ZM694.867 192.76L689.347 177.72H691.827L697.347 192.76H694.867ZM704.46 192.76L698.94 177.72H701.42L706.94 192.76H704.46ZM714.054 192.76L708.534 177.72H711.014L716.534 192.76H714.054ZM723.648 192.76L718.128 177.72H720.608L726.128 192.76H723.648ZM762.023 192.76L756.503 177.72H758.983L764.503 192.76H762.023ZM771.617 192.76L766.097 177.72H768.577L774.097 192.76H771.617ZM781.21 192.76L775.69 177.72H778.17L783.69 192.76H781.21ZM790.804 192.76L785.284 177.72H787.764L793.284 192.76H790.804ZM800.398 192.76L794.878 177.72H797.358L802.878 192.76H800.398ZM809.992 192.76L804.472 177.72H806.952L812.472 192.76H809.992ZM819.585 192.76L814.065 177.72H816.545L822.065 192.76H819.585ZM829.179 192.76L823.659 177.72H826.139L831.659 192.76H829.179ZM838.773 192.76L833.253 177.72H835.733L841.253 192.76H838.773ZM848.367 192.76L842.847 177.72H845.327L850.847 192.76H848.367Z" fill="#DC322F"/>
</svg>
